<?xml version="1.0" encoding="utf-8"?>
<!-- Svg Vector Icons : http://www.onlinewebfonts.com/icon -->
<!DOCTYPE svg PUBLIC "-//W3C//DTD SVG 1.1//EN" "http://www.w3.org/Graphics/SVG/1.1/DTD/svg11.dtd">
<svg version="1.1" xmlns="http://www.w3.org/2000/svg" xmlns:xlink="http://www.w3.org/1999/xlink" x="0px" y="0px" viewBox="0 0 1000 1000" enable-background="new 0 0 1000 1000" xml:space="preserve">
<metadata> Svg Vector Icons : http://www.onlinewebfonts.com/icon </metadata>
<g><g transform="translate(0.000000,512.000000) scale(0.100000,-0.100000)"><path d="M4415.9,4995c-30.6-13.4-78.5-47.9-101.5-74.7c-32.5-34.5-206.7-522.6-589.6-1653.9c-298.6-882.5-557-1640.5-574.3-1684.5l-30.6-82.3H1693.8c-1301.7,0-1429.9-1.9-1479.7-32.5c-91.9-53.6-120.6-130.2-112.9-298.6c7.7-130.2,15.3-151.2,63.2-202.9c30.6-32.5,84.2-63.2,118.7-70.8c49.8-9.6,63.2-23,72.7-70.8c5.7-34.5,222.1-1269.2,478.6-2743.1c258.4-1475.9,480.5-2704.8,492-2733.6c13.4-28.7,51.7-67,84.2-88c61.3-38.3,109.1-38.3,3591.1-38.3c2764.2,0,3539.4,5.7,3575.8,24.9c111,57.4,93.8-26.8,597.2,2867.6C9437-376.4,9651.4,864,9651.4,873.6c0,7.7,17.2,13.4,40.2,13.4c63.2,0,147.4,59.3,180,126.3c38.3,84.2,38.3,302.4-1.9,369.4c-67,112.9,9.6,107.2-1554.4,116.8l-1443.4,9.6l-572.4,1684.5c-534.1,1577.3-574.3,1688.4-637.4,1745.8c-191.4,176.1-509.2,38.3-509.2-222.1c0-30.6,241.2-761.9,536-1627.1c294.8-863.3,536-1575.4,536-1581.2c0-5.7-551.3-9.6-1225.1-9.6c-673.8,0-1225.1,5.7-1225.1,11.5c0,5.7,241.2,719.8,537.9,1585c578.1,1694.1,572.4,1667.3,482.4,1787.9C4705,5004.6,4540.3,5052.4,4415.9,4995z M1561.7,586.5c5.7-82.3,17.2-185.7,23-229.7l11.5-82.3h-336.9c-333.1,0-336.9,0-346.5,44c-11.5,55.5-67,382.8-67,402c0,7.7,158.9,13.4,352.2,13.4h350.3L1561.7,586.5z M2651,576.9c7.7-88,13.4-191.4,13.4-229.7v-72.7H2360h-304.4l-11.5,82.3c-5.8,44-17.2,147.4-23,229.7l-13.4,147.4h315.9h315.8L2651,576.9z M3736.3,634.3c0-55.5,5.7-158.9,13.4-229.7l11.5-130.2h-319.7h-317.8v72.7c0,38.3-5.7,141.7-13.4,229.7l-11.5,157h319.7h317.8V634.3z M4770,504.2V274.4h-275.6h-273.7l-11.5,130.2c-7.7,70.8-13.4,174.2-13.4,229.7v99.5h287.1H4770V504.2z M5796.1,663c-5.7-40.2-11.5-143.6-11.5-229.7V274.4H5507h-277.6v229.7v229.7h289.1h291L5796.1,663z M6887.2,586.5c-5.7-80.4-11.5-183.8-11.5-229.7v-82.3h-317.8h-319.7l11.5,130.2c7.7,70.8,13.4,174.2,13.4,229.7v99.5h317.8h319.7L6887.2,586.5z M7978.3,586.5c-5.7-82.3-17.2-185.7-22.9-229.7l-11.5-82.3h-304.4h-304.4v82.3c0,46,5.8,149.3,11.5,229.7l13.4,147.4h315.8h315.9L7978.3,586.5z M9153.7,720.5c0-19.1-55.5-346.5-67-402c-9.6-44-13.4-44-346.5-44h-336.9l11.5,82.3c5.8,44,17.2,147.4,23,229.7l13.4,147.4h350.3C8994.8,733.9,9153.7,728.1,9153.7,720.5z M1657.5-303.7c7.7-67,17.2-170.4,24.9-229.7l11.5-111h-310.1c-168.5,0-308.2,5.7-308.2,15.3c0,17.2-55.5,344.6-67,402L999-185h323.5h321.6L1657.5-303.7z M2704.6-236.7c0-30.6,7.7-134,13.4-231.6l13.4-176.1h-289.1h-289.1l-13.4,120.6c-7.7,65.1-17.2,168.4-24.9,229.7L2103.5-185H2404h298.6L2704.6-236.7z M3774.6-414.7v-229.7h-285.2h-285.2l-11.5,114.9c-5.7,63.2-17.2,166.5-23,229.7L3158.2-185h308.2h308.2V-414.7z M4770-414.7v-229.7h-268h-268v229.7V-185h268h268V-414.7z M5765.4-414.7v-229.7h-268h-268v229.7V-185h268h268V-414.7z M6827.9-370.7c-19.1-304.4,17.2-273.7-315.8-273.7h-287.1v101.5c0,53.6,5.8,157,13.4,229.7l11.5,128.3h294.8h292.9L6827.9-370.7z M7882.6-299.8c-5.7-63.2-17.2-166.6-22.9-229.7l-13.4-114.9h-291h-292.9l7.6,82.3c3.9,44,11.5,147.4,19.1,229.7l11.5,147.4h296.7H7896L7882.6-299.8z M8991-227.1c-11.5-57.4-67-384.8-67-402c0-9.6-139.7-15.3-308.2-15.3h-310.1l13.4,120.6c7.7,65.1,17.2,168.4,24.9,229.7l11.5,109.1H8677h323.5L8991-227.1z M1753.2-1184.2c5.7-45.9,17.2-149.3,23-231.6l13.4-149.3l-275.6,5.8l-273.7,5.7l-34.5,191.4c-17.2,105.3-32.5,206.7-32.5,225.9c-1.9,28.7,24.9,32.5,283.3,32.5h285.2L1753.2-1184.2z M2779.2-1186.1c0-45.9,5.7-149.3,11.5-229.7l13.4-147.4h-269.9h-268l-11.5,53.6c-5.7,28.7-15.3,99.5-21.1,157c-5.7,57.4-15.3,137.8-21.1,178l-11.5,70.8h289.1h289.1V-1186.1z M3793.8-1289.5c0-103.4,5.7-206.7,11.5-229.7l11.5-44h-277.6h-277.6l-11.5,158.9c-7.7,86.1-17.2,189.5-23,229.7l-11.5,70.8h289.1h289.1V-1289.5z M4770-1333.5v-229.7h-246.9c-289.1,0-269.9-21.1-269.9,273.7v185.7h258.4H4770V-1333.5z M5746.3-1289.5c0-294.8,19.2-273.7-269.9-273.7h-246.9v229.7v229.7h258.4h258.4V-1289.5z M6772.3-1260.8c-7.6-88-17.2-191.4-23-229.7l-11.5-72.7h-266.1h-266.1v187.6c0,294.8-24.9,271.8,300.6,271.8h277.6L6772.3-1260.8z M7794.5-1136.4c0-19.2-9.6-122.5-22.9-229.7l-23-197.2h-273.7h-273.8l11.5,149.3c5.8,80.4,13.4,183.8,19.1,229.7l9.6,80.4h277.6C7767.7-1103.8,7794.5-1107.6,7794.5-1136.4z M8835.9-1159.3c-5.8-28.7-24.9-130.2-44-224l-30.6-170.4l-275.7-5.7l-273.7-5.8l11.5,82.3c5.8,45.9,17.2,149.3,23,231.6l13.4,147.4h292.9h294.8L8835.9-1159.3z M1848.9-2137.5c5.7-63.2,17.2-166.5,23-229.7l13.4-114.9h-243.1c-132.1,0-241.2,1.9-241.2,5.7c0,1.9-17.2,93.8-38.3,204.8s-38.3,212.5-38.3,224c0,19.1,63.2,24.9,256.5,24.9h254.6L1848.9-2137.5z M2825.2-2064.8c5.7-24.9,13.4-128.3,21.1-231.6l9.6-187.6l-252.7,5.8l-254.6,5.7l-23,191.4c-11.5,105.3-23,206.7-23,225.9c-1.9,28.7,23,32.5,256.5,32.5C2811.8-2022.7,2817.5-2024.6,2825.2-2064.8z M3812.9-2122.2c0-55.5,5.7-158.9,13.4-229.7l11.5-130.2h-260.3H3319l-11.5,149.3c-7.7,80.4-15.3,183.8-19.1,229.7l-7.7,80.4h266.1h266.1V-2122.2z M4770-2252.4v-229.7h-237.4h-235.5l-11.5,130.2c-7.7,70.8-13.4,174.2-13.4,229.7v99.6h248.9H4770V-2252.4z M5727.2-2122.2c0-55.5-5.7-158.9-13.4-229.7l-11.5-130.2h-235.5h-237.4v229.7v229.7h248.9h248.8V-2122.2z M6699.6-2198.8c-5.8-97.6-13.4-201-13.4-229.7l-1.9-53.6H6424h-262.2l11.5,130.2c7.7,70.8,13.4,174.2,13.4,229.7v99.6h264.2H6713L6699.6-2198.8z M7696.9-2055.2c0-19.1-11.5-120.6-23-225.9l-23-191.4l-254.6-5.7l-254.6-5.8l11.5,187.6c19.1,304.4-11.5,273.7,287.1,273.7C7674-2022.7,7698.8-2026.5,7696.9-2055.2z M8675.1-2026.5c0-3.8-17.2-105.3-38.3-225.9c-21.1-120.6-38.3-222.1-38.3-224c0-3.8-111-5.7-245-5.7h-245l23,225.9c13.4,122.5,24.9,225.9,24.9,229.7c1.9,1.9,118.7,3.8,260.3,3.8C8558.3-2022.7,8675.1-2024.6,8675.1-2026.5z M1944.6-3021.9c5.7-45.9,17.2-149.3,23-229.7l13.4-149.3h-214.4c-116.8,0-212.5,1.9-212.5,5.7c0,1.9-17.2,103.4-38.3,224c-21.1,120.6-38.3,222-38.3,225.9c0,1.9,101.5,3.8,227.8,3.8h227.8L1944.6-3021.9z M2894.1-3023.8c0-45.9,5.7-149.3,11.5-229.7l13.4-147.4h-239.3h-239.3l-13.4,149.3c-5.7,80.4-17.2,183.8-23,229.7l-11.5,80.4h250.8h250.8V-3023.8z M3839.7-3088.9c5.7-80.4,11.5-183.8,11.5-229.7v-82.3h-237.4h-235.5l-11.5,158.9c-7.7,86.1-13.4,189.5-13.4,229.7v70.8h237.4h235.5L3839.7-3088.9z M4770-3171.2v-229.7h-229.7h-229.7v101.4c0,53.6-5.7,157-13.4,229.7l-11.5,128.3h243.1H4770V-3171.2z M5702.3-3069.8c-7.7-72.7-13.4-176.1-13.4-229.7v-101.4h-229.7h-229.7v229.7v229.7h241.2h243.1L5702.3-3069.8z M6646-3012.3c0-40.2-5.7-143.6-13.4-229.7l-11.5-158.9h-235.5h-237.4v101.4c0,53.6,5.8,157,13.4,229.7l11.5,128.3h235.4H6646V-3012.3z M7595.5-3012.3c-5.7-40.2-15.3-120.6-21-178c-5.7-57.4-15.3-128.3-21.1-157l-11.5-53.6h-235.5H7071l7.6,82.3c3.9,44,11.5,147.4,19.2,229.7l11.5,147.4h248.8H7607L7595.5-3012.3z M8476-3171.2l-36.3-229.7h-220.1c-216.3,0-218.2,0-208.7,44c5.7,23,17.2,120.6,23,214.4c7.7,95.7,17.2,178,23,187.6c3.8,7.7,109.1,13.4,231.6,13.4h225.9L8476-3171.2z M2059.5-4007.7c5.7-82.3,17.2-185.7,23-229.7l11.5-82.3h-183.8c-174.2,0-183.8,1.9-193.3,44c-11.5,55.5-67,382.9-67,402c0,7.7,90,13.4,199.1,13.4h197.2L2059.5-4007.7z M2959.2-3959.9c5.7-55.5,13.4-158.9,19.1-229.7l9.6-130.2h-216.3h-218.2l-11.5,82.3c-5.7,44-17.2,147.4-23,229.7l-13.4,147.4h222.1h222.1L2959.2-3959.9z M3870.3-4046c0-103.4,5.7-206.7,11.5-229.7c11.5-44,11.5-44-208.7-44h-222.1l-9.6,101.5c-5.7,53.6-15.3,157-21.1,229.7l-11.5,128.3h231.6h229.7V-4046z M4770-4090.1v-229.7h-208.7c-245,0-231.6-17.2-231.6,273.7v185.7h220.1H4770V-4090.1z M5669.7-4090.1v-229.7h-220.1h-220.1v229.7v229.7h220.1h220.1V-4090.1z M6580.9-4007.7c-5.7-80.4-11.5-183.8-11.5-229.7v-82.3h-220.1h-220.1v187.6c0,291-15.3,271.8,245,271.8h220.1L6580.9-4007.7z M7495.9-3940.7c-5.8-45.9-15.3-147.4-23-225.9l-13.4-143.6l-214.4-5.7l-216.3-5.7v84.2c0,45.9,5.8,149.3,11.5,229.7l13.4,147.4h225.9h227.8L7495.9-3940.7z M8349.7-3873.7c0-19.1-55.5-346.5-67-402c-9.6-42.1-19.1-44-193.3-44h-183.8l11.5,82.3c5.8,44,17.2,147.4,23,229.7l13.4,147.4h197.1C8259.7-3860.3,8349.7-3866.1,8349.7-3873.7z"/></g></g>
</svg>